<?xml version="1.0" encoding="utf-8"?>
<!-- Generator: Adobe Illustrator 27.0.1, SVG Export Plug-In . SVG Version: 6.00 Build 0)  -->
<svg version="1.1" xmlns="http://www.w3.org/2000/svg" xmlns:xlink="http://www.w3.org/1999/xlink" x="0px" y="0px"
	 viewBox="0 0 852 360" style="enable-background:new 0 0 852 360;" xml:space="preserve">
<style type="text/css">
	.st0{fill:#F8AE60;}
	.st1{fill-rule:evenodd;clip-rule:evenodd;fill:#603C46;}
	.st2{fill:#603C46;}
	.st3{font-family:'ClashDisplay-Semibold';}
	.st4{font-size:56.235px;}
</style>
<g id="back">
	<rect class="st0" width="852" height="360"/>
</g>
<g id="Calque_2">
	<g>
		<g id="XMLID_00000047020532018873897820000015411659987968442558_">
			<path class="st1" d="M387.9,151.1h76.3c-2.6,18.7-18.7,33.1-38.1,33.1S390.5,169.7,387.9,151.1z M377,140.2h10.9h76.3H475
				c0.2,1.8,0.3,3.6,0.3,5.4s-0.1,3.6-0.3,5.4c-1.7,15.2-10.3,28.3-22.5,36.2h15.2c-4.3,4.3-9.3,8-14.8,10.8h-53.8
				c-5.5-2.8-10.5-6.5-14.8-10.8h15.2c-12.3-7.9-20.9-21-22.5-36.2c-0.2-1.8-0.3-3.6-0.3-5.4S376.8,142,377,140.2z"/>
			<path class="st1" d="M399.1,118.3c8.1-4.1,17.2-6.5,26.9-6.5s18.8,2.3,26.9,6.5H399.1z M368.4,118.3h11.7
				c12.3-10.8,28.4-17.3,45.9-17.3s33.7,6.5,45.9,17.3h11.7c-14.3-15.7-34.8-25.5-57.6-25.5S382.7,102.6,368.4,118.3z M347.6,129.1
				h12.5h9.9h14.3h15.2h53h15.2h14.3h9.9h12.5c-2-3.8-4.3-7.4-6.8-10.8c-16.2-22-42.2-36.3-71.6-36.3c-29.3,0-55.4,14.3-71.6,36.3
				C351.9,121.7,349.6,125.3,347.6,129.1z"/>
		</g>
	</g>
	<text transform="matrix(1 0 0 1 253.6707 249.4389)" class="st2 st3 st4">Send Noodle</text>
</g>
</svg>
