<?xml version="1.0" encoding="utf-8"?>
<!-- Generator: Adobe Illustrator 27.0.1, SVG Export Plug-In . SVG Version: 6.00 Build 0)  -->
<svg version="1.1" xmlns="http://www.w3.org/2000/svg" xmlns:xlink="http://www.w3.org/1999/xlink" x="0px" y="0px"
	 viewBox="0 0 852 360" style="enable-background:new 0 0 852 360;" xml:space="preserve">
<style type="text/css">
	.st0{fill:#F8AE60;}
	.st1{fill-rule:evenodd;clip-rule:evenodd;fill:#603C46;}
	.st2{fill:#603C46;}
</style>
<g id="back">
	<rect class="st0" width="852" height="360"/>
</g>
<g id="Calque_2">
	<g>
		<g id="XMLID_00000047020532018873897820000015411659987968442558_">
			<path class="st1" d="M387.9,151.1h76.3c-2.6,18.7-18.7,33.1-38.1,33.1S390.5,169.7,387.9,151.1z M377,140.2h10.9h76.3H475
				c0.2,1.8,0.3,3.6,0.3,5.4s-0.1,3.6-0.3,5.4c-1.7,15.2-10.3,28.3-22.5,36.2h15.2c-4.3,4.3-9.3,8-14.8,10.8h-53.8
				c-5.5-2.8-10.5-6.5-14.8-10.8h15.2c-12.3-7.9-20.9-21-22.5-36.2c-0.2-1.8-0.3-3.6-0.3-5.4S376.8,142,377,140.2z"/>
			<path class="st1" d="M399.1,118.3c8.1-4.1,17.2-6.5,26.9-6.5s18.8,2.3,26.9,6.5H399.1z M368.4,118.3h11.7
				c12.3-10.8,28.4-17.3,45.9-17.3s33.7,6.5,45.9,17.3h11.7c-14.3-15.7-34.8-25.5-57.6-25.5S382.7,102.6,368.4,118.3z M347.6,129.1
				h12.5h9.9h14.3h15.2h53h15.2h14.3h9.9h12.5c-2-3.8-4.3-7.4-6.8-10.8c-16.2-22-42.2-36.3-71.6-36.3c-29.3,0-55.4,14.3-71.6,36.3
				C351.9,121.7,349.6,125.3,347.6,129.1z"/>
		</g>
	</g>
	<g>
		<path class="st2" d="M255.2,236.7v-0.3h8.4v1c0,3.5,1.7,4.9,9.4,4.9c6.7,0,8.3-1,8.3-3.5c0-2.3-1.3-3.1-5.2-3.8l-10.6-1.5
			c-6.7-1.1-10.7-4.4-10.7-10.6c0-5.7,4.6-11.6,17.3-11.6c11.6,0,17,5.3,17,13.3v0.3h-8.5V224c0-3.6-1.9-5.1-9.3-5.1
			c-6.1,0-7.9,1.2-7.9,3.6c0,2.2,1.2,3,4.4,3.5l10.6,1.7c8.4,1.3,11.5,5.5,11.5,10.6c0,6.1-4.8,11.6-16.8,11.6
			C261.6,250,255.2,245.5,255.2,236.7z"/>
		<path class="st2" d="M292.4,235.4c0-9,6.4-14.7,15.6-14.7c9.2,0,15.4,4.8,15.4,13.7c0,1-0.1,1.7-0.2,2.7h-22.9
			c0.2,4.3,2.2,6.2,7.7,6.2c5,0,6.7-1.3,6.7-3.7V239h8.4v0.6c0,6.1-6,10.4-14.9,10.4C298.8,250,292.4,245.4,292.4,235.4z
			 M300.3,232.6h15c-0.2-3.7-2.5-5.3-7.4-5.3C302.8,227.3,300.7,229,300.3,232.6z"/>
		<path class="st2" d="M326.9,249.4v-28.2h7.8v8.7h0.5c0.7-4.7,4.1-9.2,11.5-9.2c7.7,0,11.4,4.9,11.4,11.2v17.5h-8.4v-14.7
			c0-4.5-1.9-6.4-7-6.4c-5.3,0-7.3,2.1-7.3,6.9v14.2H326.9z"/>
		<path class="st2" d="M361.4,235.4c0-9,4.8-14.7,13.2-14.7c6.7,0,10.1,3.3,11.1,8h0.5v-17h8.4v37.7h-7.9v-7.8h-0.5
			c-1.1,5.6-4.8,8.4-11.2,8.4C366.2,250,361.4,244.3,361.4,235.4z M377.8,242.3c5.3,0,8.3-1.9,8.3-6.7v-0.4c0-4.9-2.9-6.7-8.3-6.7
			s-7.9,1.8-7.9,7C369.9,240.5,372.4,242.3,377.8,242.3z"/>
		<path class="st2" d="M407.6,249.4v-37.7h9l13.5,17.8l5.2,7.9h0.6l-0.4-7.6v-18.2h8.4v37.7h-9l-13.9-18l-4.8-7.1h-0.6l0.3,6.9v18.2
			H407.6z"/>
		<path class="st2" d="M447.4,235.4c0-9,6.5-14.7,16.1-14.7s16.1,5.7,16.1,14.7c0,8.9-6.5,14.6-16.1,14.6S447.4,244.3,447.4,235.4z
			 M471.2,235.4c0-4.9-2-7.3-7.7-7.3c-5.7,0-7.7,2.3-7.7,7.3c0,4.9,2,7.1,7.7,7.1C469.2,242.5,471.2,240.3,471.2,235.4z"/>
		<path class="st2" d="M481.9,235.4c0-9,6.5-14.7,16.1-14.7c9.6,0,16.1,5.7,16.1,14.7c0,8.9-6.5,14.6-16.1,14.6
			C488.4,250,481.9,244.3,481.9,235.4z M505.7,235.4c0-4.9-2-7.3-7.7-7.3c-5.7,0-7.7,2.3-7.7,7.3c0,4.9,2,7.1,7.7,7.1
			C503.7,242.5,505.7,240.3,505.7,235.4z"/>
		<path class="st2" d="M516.5,235.4c0-9,4.8-14.7,13.2-14.7c6.7,0,10.1,3.3,11.1,8h0.5v-17h8.4v37.7h-7.9v-7.8h-0.5
			c-1.1,5.6-4.8,8.4-11.2,8.4C521.3,250,516.5,244.3,516.5,235.4z M533,242.3c5.3,0,8.3-1.9,8.3-6.7v-0.4c0-4.9-2.9-6.7-8.3-6.7
			c-5.4,0-7.9,1.8-7.9,7C525.1,240.5,527.6,242.3,533,242.3z"/>
		<path class="st2" d="M554.1,249.4v-37.7h8.4v37.7H554.1z"/>
		<path class="st2" d="M566.2,235.4c0-9,6.4-14.7,15.6-14.7c9.2,0,15.4,4.8,15.4,13.7c0,1-0.1,1.7-0.2,2.7H574
			c0.2,4.3,2.2,6.2,7.7,6.2c5,0,6.7-1.3,6.7-3.7V239h8.4v0.6c0,6.1-6,10.4-14.9,10.4C572.6,250,566.2,245.4,566.2,235.4z
			 M574.1,232.6h15c-0.2-3.7-2.5-5.3-7.4-5.3C576.6,227.3,574.5,229,574.1,232.6z"/>
	</g>
</g>
</svg>
